<svg xmlns="http://www.w3.org/2000/svg" viewBox="0 0 32 32">
  <!-- Sample 5: Layered Petals - Depth and sophistication -->
  <defs>
    <linearGradient id="gold5a" x1="0%" y1="0%" x2="100%" y2="100%">
      <stop offset="0%" style="stop-color:#DAA520"/>
      <stop offset="100%" style="stop-color:#B8860B"/>
    </linearGradient>
    <linearGradient id="gold5b" x1="100%" y1="0%" x2="0%" y2="100%">
      <stop offset="0%" style="stop-color:#DAA520" stop-opacity="0.7"/>
      <stop offset="100%" style="stop-color:#B8860B" stop-opacity="0.7"/>
    </linearGradient>
  </defs>
  <path d="M16 4C16 4 6 12 6 20C6 26 10 30 16 30C10 26 10 18 16 10C22 18 22 26 16 30C22 30 26 26 26 20C26 12 16 4 16 4Z" fill="url(#gold5a)"/>
  <path d="M16 10C16 10 12 16 12 20C12 24 14 26 16 26C18 26 20 24 20 20C20 16 16 10 16 10Z" fill="url(#gold5b)"/>
  <circle cx="16" cy="18" r="2" fill="#1a1a1a"/>
</svg>
